<svg width="64" height="64" viewBox="0 0 64 64" fill="none" xmlns="http://www.w3.org/2000/svg">
<rect width="64" height="64" rx="5" fill="white"/>
<path d="M32.5968 29.1246L31.8914 28.7797V29.2678L32.5968 29.1246Z" fill="#1D2612"/>
<path d="M34.2199 28.9586C34.235 28.9704 34.2493 28.983 34.2632 28.9969C34.2762 29.01 34.2889 29.0242 34.3015 29.04C34.2898 29.0249 34.2771 29.0107 34.2632 28.9969C34.2501 28.9839 34.2357 28.9713 34.2199 28.9586Z" fill="#1D2612"/>
<path d="M10.076 29.0628C10.0956 29.0335 10.1185 29.0107 10.1413 28.9879C10.1152 29.0107 10.0956 29.0367 10.076 29.0628Z" fill="#1D2612"/>
<path d="M10.1903 28.9456C10.2165 28.9293 10.2426 28.9163 10.2687 28.9066C10.2393 28.9196 10.2132 28.9293 10.1903 28.9456Z" fill="#1D2612"/>
<path d="M34.3211 29.0627C34.341 29.095 34.3571 29.1291 34.3694 29.1665C34.3579 29.1301 34.3432 29.0946 34.3211 29.0627Z" fill="#1D2612"/>
<path d="M10.1413 28.9879C10.1413 28.9879 10.1707 28.9586 10.1903 28.9456C10.1707 28.9586 10.1577 28.9716 10.1413 28.9879Z" fill="#1D2612"/>
<path d="M10.0564 29.0888C10.0564 29.0888 10.0499 29.1083 10.0466 29.1181C10.0564 29.0985 10.0662 29.0823 10.076 29.0628C10.0695 29.0725 10.0597 29.0758 10.0564 29.0855" fill="#1D2612"/>
<path d="M10.2687 28.9033C10.2916 28.8935 10.3112 28.8838 10.3373 28.8773C10.3144 28.8838 10.2916 28.8935 10.2687 28.9033Z" fill="#1D2612"/>
<path d="M34.2983 29.0367C34.2983 29.0367 34.3146 29.053 34.3179 29.0627C34.3113 29.053 34.3048 29.0465 34.2983 29.0367Z" fill="#1D2612"/>
<path d="M34.3864 29.2157C34.3864 29.2157 34.3799 29.2059 34.3799 29.1994C34.3799 29.212 34.383 29.2246 34.3861 29.2342C34.3861 29.228 34.3864 29.2217 34.3864 29.2124" fill="#1D2612"/>
<path d="M34.1742 28.9261C34.1742 28.9261 34.1771 28.9278 34.1815 28.9306C34.1919 28.9371 34.2107 28.9495 34.2199 28.9586C34.2061 28.9476 34.1946 28.9389 34.1815 28.9306C34.1791 28.9291 34.1767 28.9276 34.1742 28.9261Z" fill="#1D2612"/>
<path d="M16.8427 48.9707C16.8427 48.9707 16.8166 48.961 16.8035 48.9544C16.8166 48.961 16.8297 48.9675 16.8427 48.9707Z" fill="#1D2612"/>
<path d="M17.0027 49C17.0027 49 17.0093 49 17.0158 49C17.0093 49 16.9995 49 16.9929 49L17.0027 49Z" fill="#1D2612"/>
<path d="M47.9944 17.0888L47.9922 17.0893L48.9975 17.5241V17.7746L38.0408 19.9581V19.6001C38.0408 19.3561 37.8449 19.1608 37.6 19.1608C37.503 19.1608 37.4138 19.1919 37.3413 19.2444C37.4132 19.1937 37.5012 19.1641 37.5967 19.1641C37.8416 19.1641 38.0376 19.3626 38.0376 19.6034L38.0376 19.9613V34.6434L37.6709 34.7307L37.6718 34.7312L38.0408 34.6434V34.6483L54.1182 30.8297V22.0959L48.9061 23.0591L48.9942 17.7844L49.5298 17.677C49.7025 17.644 49.8323 17.5137 49.8722 17.3541C49.8301 17.5097 49.7032 17.6357 49.5331 17.6705L48.9975 17.7779L49.004 17.7746V17.5241L47.9944 17.0888Z" fill="#1D2612"/>
<path d="M31.8914 29.2645L31.8914 28.7797L31.0129 28.3469L31.0129 28.3501L27.1462 26.453L11.6936 29.5012L16.6794 32.294L31.0129 29.437V30.3318L17.0583 33.114L16.6958 33.1856C16.6696 33.1953 16.6402 33.1953 16.6108 33.1953C16.5357 33.1953 16.4606 33.1758 16.3953 33.14L16.1765 33.0164L16.17 32.7691C16.1634 32.5283 16.3561 32.3265 16.5978 32.32L16.5945 32.32C16.3528 32.3265 16.1602 32.5283 16.1667 32.7691V32.7658L16.1732 33.0131L10.8892 30.0552L10.8892 30.0585L11.0688 44.4184L16.5325 47.7635L16.1732 33.0196L16.392 33.1433C16.4573 33.1791 16.5325 33.1986 16.6076 33.1986C16.6337 33.1986 16.6631 33.1953 16.6925 33.1888L17.055 33.1172L17.4175 48.0043L33.8867 43.9441L33.6125 33.3548L34.504 33.8832L34.5038 33.8779L33.619 33.3515L33.5929 32.3187L33.5896 32.3167L33.5276 29.8339L31.8914 30.1594L31.0129 30.3351V29.4402L31.8914 29.2645Z" fill="#1D2612"/>
<path d="M31.0129 16.8293V16.8358C31.0248 16.9882 31.1168 17.1302 31.2676 17.1987L31.8914 17.4818V27.8035L31.8914 28.7764V27.8002L34.148 28.9066C34.1578 28.9098 34.1644 28.9163 34.1742 28.9228C34.1905 28.9326 34.2036 28.9456 34.2199 28.9554C34.2525 28.9781 34.2787 29.0074 34.3015 29.0367C34.3081 29.0465 34.3146 29.053 34.3211 29.0627C34.3432 29.0946 34.3579 29.1301 34.3694 29.1665C34.3733 29.1782 34.3768 29.1903 34.3799 29.2027V29.1994C34.3799 29.2059 34.3864 29.2157 34.3864 29.2157L34.3861 29.2342C34.3863 29.2367 34.3864 29.2392 34.3864 29.2417C34.3876 29.25 34.3886 29.2582 34.3893 29.2664L34.3897 29.2682C34.3916 29.2763 34.393 29.2847 34.393 29.2938L34.4844 32.8471L34.4846 32.8544L37.1525 34.4351V35.203C37.1525 35.4471 37.3485 35.6423 37.5934 35.6423C37.6182 35.6423 37.6425 35.6403 37.6662 35.6365L37.7281 35.6218C37.751 35.6146 37.773 35.6056 37.794 35.5949C37.7356 35.6232 37.6698 35.6391 37.6 35.6391C37.355 35.6391 37.1591 35.4406 37.1591 35.1998V34.4286V19.8847L37.1558 19.8832V19.8785L31.8947 17.4785V17.1531L32.8547 16.9599L32.8488 16.9572L31.8914 17.1531V17.4785L31.2676 17.1954C31.1173 17.1284 31.0237 16.9845 31.0129 16.8293Z" fill="#1D2612"/>
<path d="M42.9493 14.9176L32.8745 16.9624L37.6522 19.1413L47.9715 17.0868L42.9493 14.9176Z" fill="#1D2612"/>
<path d="M49.8041 21.9918L53.6786 21.2769L49.8433 19.6294L49.8041 21.9918Z" fill="#1D2612"/>
<path fill-rule="evenodd" clip-rule="evenodd" d="M53.6892 21.2782L53.6839 21.2792L53.6786 21.2769L53.6839 21.2759L53.6892 21.2782Z" fill="#1D2612"/>
<path fill-rule="evenodd" clip-rule="evenodd" d="M37.3413 19.2444C37.2306 19.3245 37.1591 19.4546 37.1591 19.6001V19.88L37.1558 19.8785V19.6034C37.1558 19.4544 37.2288 19.3237 37.3413 19.2444ZM47.9922 17.0893L47.9818 17.0848L47.9715 17.0868L47.9818 17.0913L47.9922 17.0893ZM32.8745 16.9624L32.8646 16.9579L32.8613 16.9585L32.8547 16.9599L32.8646 16.9644L32.8745 16.9624Z" fill="#1D2612"/>
<path fill-rule="evenodd" clip-rule="evenodd" d="M37.6709 34.7307L37.1624 34.4286L37.1591 34.4286L37.6686 34.7312L37.6709 34.7307ZM37.1591 19.8847L37.5412 20.0589L37.5434 20.0585L37.1591 19.8832V19.8847Z" fill="#1D2612"/>
<path fill-rule="evenodd" clip-rule="evenodd" d="M34.3893 29.2664C34.3885 29.2571 34.3878 29.2478 34.3864 29.2385L34.3832 29.2417C34.3842 29.2467 34.3855 29.2517 34.3868 29.2568C34.3877 29.2599 34.3885 29.2631 34.3893 29.2664ZM34.3897 29.2682C34.4061 29.485 34.262 29.6864 34.0403 29.7331C34.26 29.6893 34.4076 29.4862 34.3897 29.2682ZM33.5929 32.3187L34.4844 32.8471L33.5929 32.3168L33.5929 32.3187Z" fill="#1D2612"/>
<path fill-rule="evenodd" clip-rule="evenodd" d="M16.1732 33.0131L10.8892 30.0552L10.8892 29.6647L11.6926 29.5053L11.6832 29.5L10.8827 29.6582V30.052L16.1732 33.0131ZM11.685 29.4996L11.6893 29.502L11.6936 29.5012L11.6893 29.4988L11.685 29.4996ZM17.0583 33.114L17.0485 32.7463C17.0419 32.5087 16.846 32.32 16.6076 32.32H16.5978L16.5945 32.32H16.6043C16.8427 32.32 17.0387 32.5087 17.0452 32.7463L17.055 33.114L17.0583 33.114Z" fill="#1D2612"/>
<path fill-rule="evenodd" clip-rule="evenodd" d="M16.5325 47.7667L16.5325 47.7635L16.1732 33.0196L16.5325 47.7667Z" fill="#1D2612"/>
<path fill-rule="evenodd" clip-rule="evenodd" d="M33.8867 43.9441L33.89 43.9433L33.8868 43.9465L33.8867 43.9441ZM34.5073 33.8872L34.5073 33.8852L34.504 33.8832L34.504 33.8852L34.5073 33.8872Z" fill="#1D2612"/>
<path fill-rule="evenodd" clip-rule="evenodd" d="M16.5325 47.7635L16.5521 48.5705L16.5553 48.5737C16.5585 48.7405 16.6601 48.882 16.8007 48.9515C16.793 48.9478 16.7831 48.9433 16.7756 48.94C16.6465 48.8671 16.5551 48.7318 16.5521 48.5737L16.5325 47.7667L16.5325 47.7635Z" fill="#1D2612"/>
<path fill-rule="evenodd" clip-rule="evenodd" d="M10.6535 28.9208C10.5539 28.8676 10.4452 28.8582 10.3426 28.8801C10.3398 28.8812 10.3366 28.8825 10.334 28.8838C10.4385 28.861 10.5496 28.8708 10.6508 28.9261L10.6535 28.9208ZM11.6893 29.502L11.685 29.4996L11.6893 29.4988L11.6936 29.5012L11.6893 29.502Z" fill="#1D2612"/>
<path fill-rule="evenodd" clip-rule="evenodd" d="M33.521 29.5769L33.5276 29.8339L33.5243 29.8339L33.5177 29.5769L32.5968 29.1246L33.521 29.5769Z" fill="#1D2612"/>
<path fill-rule="evenodd" clip-rule="evenodd" d="M34.1742 28.9228C34.086 28.8708 33.9782 28.8447 33.8672 28.8708C33.9782 28.848 34.0827 28.8708 34.1742 28.9228Z" fill="#1D2612"/>
<path fill-rule="evenodd" clip-rule="evenodd" d="M37.5434 20.0585L37.1591 19.8832V19.8847L37.5412 20.0589L37.5434 20.0585ZM37.1558 19.8785V19.6034C37.1558 19.4544 37.2288 19.3237 37.3413 19.2444C37.2306 19.3245 37.1591 19.4546 37.1591 19.6001V19.88L37.1558 19.8785Z" fill="#1D2612"/>
<path fill-rule="evenodd" clip-rule="evenodd" d="M32.8515 16.9567L32.8613 16.9611V16.9585V16.9546L32.8515 16.9567ZM32.8488 16.9572L32.8515 16.9567L31.6334 16.4015C31.4113 16.3006 31.1501 16.3982 31.0521 16.6162C31.0281 16.6687 31.0155 16.7234 31.0129 16.7776C31.012 16.7934 31.0121 16.8092 31.0129 16.8249V16.7776C31.0157 16.7243 31.0283 16.6707 31.0521 16.6195C31.1533 16.3982 31.4146 16.3006 31.6367 16.4047L32.8488 16.9572Z" fill="#1D2612"/>
<path fill-rule="evenodd" clip-rule="evenodd" d="M47.9944 17.0888L49.36 16.818C49.6017 16.7692 49.8303 16.9253 49.876 17.1629C49.8805 17.1848 49.8833 17.2066 49.8844 17.2283L49.8834 17.287C49.8814 17.3098 49.8777 17.3323 49.8722 17.3541C49.877 17.3366 49.8806 17.3186 49.8832 17.3004C49.8879 17.266 49.8887 17.2307 49.885 17.195C49.8836 17.1821 49.8817 17.1693 49.8793 17.1564C49.8517 17.0228 49.7684 16.9149 49.6577 16.8548C49.635 16.8424 49.6111 16.8321 49.5863 16.8239C49.5172 16.8013 49.4411 16.7957 49.3633 16.8115L47.9851 17.0848L47.9944 17.0888Z" fill="#1D2612"/>
<path fill-rule="evenodd" clip-rule="evenodd" d="M49.8433 19.6294L49.8433 19.6262L49.2686 19.3789C49.1043 19.3091 49.0044 19.1485 49.0031 18.9801C49.0031 19.1497 49.1033 19.3119 49.2686 19.3821L49.8433 19.6294Z" fill="#1D2612"/>
<path fill-rule="evenodd" clip-rule="evenodd" d="M38.0408 35.1998C38.0408 35.3743 37.9407 35.5239 37.794 35.5949C37.9371 35.5226 38.0343 35.3749 38.0343 35.203V34.6499L38.0408 34.6483V35.1998ZM37.6709 34.7307L37.1624 34.4286L37.1591 34.4286L37.6686 34.7312L37.6709 34.7307Z" fill="#1D2612"/>
<path fill-rule="evenodd" clip-rule="evenodd" d="M33.5929 32.3187L33.5929 32.3168L34.4844 32.8471L33.5929 32.3187ZM34.5038 33.8779L34.5105 33.8819L34.4846 32.8544L34.4779 32.8504L34.5038 33.8779Z" fill="#1D2612"/>
<path fill-rule="evenodd" clip-rule="evenodd" d="M33.5276 29.8339L33.521 29.5769L32.5968 29.1246L33.5177 29.5769L33.5243 29.8339L33.5276 29.8339ZM34.0403 29.7331C34.26 29.6893 34.4076 29.4862 34.3897 29.2682C34.4061 29.485 34.262 29.6864 34.0403 29.7331ZM34.3893 29.2664C34.3886 29.2582 34.3876 29.25 34.3864 29.2417L34.3864 29.2385L34.3832 29.2417C34.3842 29.2467 34.3855 29.2517 34.3868 29.2568L34.3893 29.2664ZM34.3861 29.2342C34.3852 29.2237 34.3825 29.2132 34.3799 29.2027C34.3804 29.214 34.3833 29.2255 34.3861 29.2342ZM34.3211 29.0627C34.3432 29.0946 34.3579 29.1301 34.3694 29.1665C34.3571 29.1291 34.341 29.095 34.3211 29.0627ZM34.1742 28.9228C34.086 28.8708 33.9782 28.8447 33.8672 28.8708C33.9782 28.848 34.0827 28.8708 34.1742 28.9228ZM34.2632 28.9969C34.2493 28.983 34.235 28.9704 34.2199 28.9586C34.2107 28.9495 34.1919 28.9371 34.1815 28.9306C34.1946 28.9389 34.2061 28.9476 34.2199 28.9586C34.2357 28.9713 34.2501 28.9839 34.2632 28.9969ZM34.3015 29.04C34.2889 29.0242 34.2762 29.01 34.2632 28.9969C34.2771 29.0107 34.2898 29.0249 34.3015 29.04ZM34.2983 29.0367C34.2983 29.0367 34.3146 29.053 34.3179 29.0627C34.3113 29.053 34.3048 29.0465 34.2983 29.0367Z" fill="#1D2612"/>
<path fill-rule="evenodd" clip-rule="evenodd" d="M16.5978 32.32H16.6076C16.846 32.32 17.0419 32.5087 17.0485 32.7463L17.0583 33.114L17.055 33.114L17.0452 32.7463C17.0387 32.5087 16.8427 32.32 16.6043 32.32L16.5978 32.32Z" fill="#1D2612"/>
<path fill-rule="evenodd" clip-rule="evenodd" d="M17.4306 48.5509C17.4371 48.7885 17.2509 48.9837 17.0125 48.9967C17.0387 48.9967 17.0681 48.9935 17.0942 48.987L17.134 48.9772C17.3103 48.9173 17.4365 48.7502 17.4338 48.5542L17.4306 48.5509ZM16.9929 49C16.9407 49 16.8917 48.987 16.8427 48.9707C16.8427 48.9707 16.8166 48.961 16.8035 48.9544C16.8166 48.961 16.8297 48.9675 16.8427 48.9707C16.8884 48.987 16.9407 49 16.9929 49ZM16.7756 48.94C16.7831 48.9433 16.793 48.9478 16.8007 48.9515C16.6601 48.882 16.5585 48.7405 16.5553 48.5737L16.5521 48.5705L16.5325 47.7667L16.5521 48.5737C16.5551 48.7318 16.6465 48.8671 16.7756 48.94Z" fill="#1D2612"/>
<path fill-rule="evenodd" clip-rule="evenodd" d="M54.5591 21.6176C54.5003 21.6176 54.4415 21.6078 54.386 21.5818V21.5851L53.6839 21.2824L53.6945 21.2805L54.386 21.5786C54.4415 21.6013 54.5003 21.6144 54.5591 21.6144C54.7289 21.6144 54.8922 21.5167 54.9641 21.3508L54.9543 21.3573C54.9771 21.302 54.9902 21.2434 54.9902 21.1881V21.2713C54.9841 21.2992 54.9752 21.327 54.9641 21.354C54.8922 21.52 54.7289 21.6176 54.5591 21.6176Z" fill="#1D2612"/>
<path fill-rule="evenodd" clip-rule="evenodd" d="M54.5591 21.6144C54.7289 21.6144 54.8922 21.5167 54.9641 21.3508L54.9543 21.3573C54.9771 21.302 54.9902 21.2434 54.9902 21.1881V21.2713C54.9841 21.2992 54.9752 21.327 54.9641 21.354C54.8922 21.52 54.7289 21.6176 54.5591 21.6176C54.5003 21.6176 54.4415 21.6078 54.386 21.5818V21.5851L53.6839 21.2824L53.6945 21.2805L54.386 21.5786C54.4415 21.6013 54.5003 21.6144 54.5591 21.6144ZM53.6892 21.2782L53.6839 21.2759L53.6786 21.2769L53.6839 21.2792L53.6892 21.2782ZM49.8433 19.6294L49.8433 19.6262L49.2686 19.3789C49.1043 19.3091 49.0044 19.1485 49.0031 18.9801C49.0031 19.1497 49.1033 19.3119 49.2686 19.3821L49.8433 19.6294ZM49.8834 17.287L49.8832 17.3004C49.8806 17.3186 49.877 17.3366 49.8722 17.3541C49.8777 17.3323 49.8814 17.3098 49.8834 17.287ZM49.8844 17.2283C49.8854 17.248 49.8851 17.2677 49.8834 17.287L49.8844 17.2283ZM49.6577 16.8548L49.5863 16.8239C49.5172 16.8013 49.4411 16.7957 49.3633 16.8115L47.9851 17.0848L47.9944 17.0888L49.36 16.818C49.6017 16.7692 49.8303 16.9253 49.876 17.1629C49.8805 17.1848 49.8833 17.2066 49.8844 17.2283L49.885 17.195C49.8836 17.1821 49.8817 17.1693 49.8793 17.1564C49.8517 17.0228 49.7684 16.9149 49.6577 16.8548ZM47.9818 17.0848L47.9922 17.0893L47.9818 17.0913L47.9715 17.0868L47.9818 17.0848ZM32.8646 16.9579L32.8745 16.9624L32.8646 16.9644L32.8547 16.9599L32.8488 16.9572L31.6367 16.4047C31.4146 16.3006 31.1533 16.3982 31.0521 16.6195C31.0283 16.6707 31.0157 16.7243 31.0129 16.7776C31.0155 16.7234 31.0281 16.6687 31.0521 16.6162C31.1501 16.3982 31.4113 16.3006 31.6334 16.4015L32.8515 16.9567L32.8613 16.9546V16.9585L32.8646 16.9579ZM31.0129 16.7776V16.8249C31.0121 16.8092 31.012 16.7934 31.0129 16.7776ZM31.0129 16.8358V16.8293C31.0128 16.8313 31.0127 16.8339 31.0129 16.8358ZM38.0343 34.6499L38.0408 34.6483V35.1998C38.0408 35.3743 37.9407 35.5239 37.794 35.5949C37.9371 35.5226 38.0343 35.3749 38.0343 35.203V34.6499ZM37.6662 35.6365L37.7281 35.6218C37.7081 35.6281 37.6874 35.633 37.6662 35.6365ZM34.5073 33.8852L34.5073 33.8872L34.504 33.8852L34.504 33.8832L34.5073 33.8852ZM34.5105 33.8819L34.5038 33.8779L34.4779 32.8504L34.4846 32.8544L34.5105 33.8819Z" fill="#1D2612"/>
</svg>
