<svg xmlns="http://www.w3.org/2000/svg" fill="none" viewBox="0 0 16 16"><path fill="currentColor" d="M9.145 7.019c0 .528-.178 1.219-.456 1.761-.672 1.32-2.042 1.311-2.042-.093 0-.524.18-1.2.458-1.72.681-1.284 2.04-1.083 2.04.052ZM16 8A8 8 0 1 1 0 8a8 8 0 0 1 16 0Zm-3.333-.796c0-2.164-1.754-3.734-4.171-3.734-3.311 0-5.163 2.1-5.163 4.715 0 2.448 1.645 4.345 4.683 4.345 1.68 0 2.75-.484 3.415-.859l-.458-.66c-.682.395-1.501.757-2.838.757-2.286 0-3.822-1.466-3.822-3.649 0-3.809 4.268-4.505 6.143-3.38 1.75 1.094 1.683 3.718.388 4.722-.69.55-1.466.532-1.214-.504 0 0 .808-2.993.903-3.317h-.91l-.18.635c-.186-.524-.629-.864-1.274-.864-1.346 0-2.482 1.46-2.482 3.189 0 1.153.609 1.87 1.587 1.87.855 0 1.3-.485 1.576-.916-.2 1.932 3.817 1.038 3.817-2.35Z"/></svg>