<svg xmlns="http://www.w3.org/2000/svg" fill="none" viewBox="0 0 145 84"><path fill="currentColor" d="M0 56.365v11.066h1.582v-5.974h4.125v-1.183H1.582v-2.726h7.254l-.296-1.183H0ZM12.09 56.346v7.062c0 .874-.03 1.528-.098 2.065-.08.646-.25 1.209-.51 1.673a2.958 2.958 0 0 1-1.148 1.152c-.448.251-1.022.392-1.71.41l-.373.012v-.909l.483-.106c.14-.038.266-.084.376-.133.38-.175.665-.403.863-.7.205-.3.342-.673.407-1.106l.027-.175c.022-.187.041-.377.06-.582a22.192 22.192 0 0 0 .038-.94v-7.734h1.586v.011ZM24.501 64.32c.331-.718.498-1.528.502-2.407 0-.89-.167-1.703-.502-2.422a4.005 4.005 0 0 0-1.44-1.692c-.628-.415-1.404-.628-2.305-.628-.901 0-1.677.21-2.308.628a4.005 4.005 0 0 0-1.44 1.692c-.332.719-.499 1.532-.499 2.422 0 .89.167 1.689.498 2.407.323.704.806 1.27 1.441 1.685.631.41 1.407.62 2.308.62.901 0 1.677-.21 2.308-.62a3.962 3.962 0 0 0 1.441-1.684m2.171-2.408c0 1.042-.232 2.012-.692 2.879a5.247 5.247 0 0 1-2.05 2.107c-.893.517-1.961.78-3.174.78-1.213 0-2.316-.26-3.205-.773-.898-.517-1.586-1.224-2.038-2.103-.449-.867-.677-1.84-.677-2.89s.228-2.038.677-2.905c.452-.878 1.137-1.59 2.034-2.11.893-.518 1.973-.78 3.209-.78s2.315.262 3.209.78c.897.52 1.582 1.228 2.034 2.11.449.867.677 1.848.677 2.905M30.722 57.57v3.674c.543.456 1.08.947 1.55 1.377h1.1c.243-.004.479-.023.696-.054a3.12 3.12 0 0 0 .965-.296c.441-.225.776-.529.996-.898.21-.35.32-.753.335-1.194V60.02a2.395 2.395 0 0 0-.334-1.195c-.221-.368-.556-.673-1-.897a3.192 3.192 0 0 0-.966-.297 9.958 9.958 0 0 0-.24-.038c-.038 0-.076-.007-.114-.011-.06-.004-.13-.011-.201-.011h-2.795.008Zm9.36 7.895-.855 1.069c-.03.038-.73.893-2.053.893-2.042 0-4.038-2.03-5.642-3.662-.282-.285-.556-.563-.81-.813v4.48h-1.586V56.364h5.091c.685 0 1.327.167 1.909.502.582.33 1.05.787 1.388 1.361.338.57.51 1.202.51 1.875s-.176 1.304-.51 1.875a3.814 3.814 0 0 1-3.297 1.86l-.627.01c.125.115.243.218.35.305l.224.19c1.107.94 2.156 1.83 3.612 1.852.373.008.867-.16 1.023-.22l1.27-.506.004-.004ZM51.88 61.898c0-.806-.151-1.548-.452-2.213a3.576 3.576 0 0 0-1.315-1.548c-.582-.38-1.29-.578-2.11-.586h-4.871v8.694h4.86c.828 0 1.539-.194 2.113-.57a3.641 3.641 0 0 0 1.316-1.56c.304-.665.46-1.41.46-2.217Zm1.582 0c0 .989-.22 1.913-.654 2.746a5 5 0 0 1-1.939 2.019c-.844.498-1.851.757-2.992.768H41.55V56.365h6.327c1.171 0 2.194.251 3.034.745a4.913 4.913 0 0 1 1.92 2.023c.422.837.64 1.765.64 2.765M65.158 63.145c0 1.704-.734 3.107-1.962 3.754-.673.353-1.517.532-2.51.532h-.133c-1.026-.015-1.87-.213-2.592-.605-.772-.422-1.346-1.038-1.666-1.787-.25-.59-.27-1.179-.27-1.688v-6.986h1.582v2.605s.008 2.578.008 3.065v1.403c0 .32 0 .624.075.91.168.615.601 1.136 1.221 1.47.605.328 1.373.465 2.281.412.848-.05 1.49-.274 1.913-.662.437-.4.737-1.016.829-1.681.041-.312.041-.65.038-.977V56.366h1.186v6.78ZM78.47 61.898c0-.806-.153-1.548-.453-2.213a3.576 3.576 0 0 0-1.316-1.548c-.581-.38-1.288-.578-2.11-.586h-4.87v8.694h4.859c.829 0 1.54-.194 2.114-.57a3.641 3.641 0 0 0 1.315-1.56c.305-.665.46-1.41.46-2.217Zm1.581 0c0 .989-.22 1.913-.654 2.746a5 5 0 0 1-1.939 2.019c-.844.498-1.852.757-2.992.768h-6.327V56.365h6.327c1.17 0 2.194.251 3.034.745a4.914 4.914 0 0 1 1.92 2.023c.422.837.639 1.765.639 2.765M90.979 64.58c0 .604-.206 1.166-.605 1.672-.388.495-.935.89-1.631 1.183-.677.289-1.456.433-2.316.433-1.087 0-1.927-.106-2.57-.326a7.858 7.858 0 0 1-1.757-.864l-.163-.106v-1.746h.68l.11.145c.252.334.499.623.735.86.144.144.365.292.65.448l.057.03a3.74 3.74 0 0 0 1.403.365c.376.023.81.038 1.224.016l.171-.012c.05 0 .091-.007.137-.011.107-.012.213-.023.312-.038.293-.046.582-.14.86-.282.376-.178.665-.399.87-.661.22-.282.33-.575.33-.898v-.068a.642.642 0 0 0-.01-.126 1.244 1.244 0 0 0-.229-.593 1.355 1.355 0 0 0-.274-.312 3.985 3.985 0 0 0-1.262-.718c-.19-.069-.59-.194-1.186-.373l-.593-.175a12.61 12.61 0 0 1-2.088-.818 2.946 2.946 0 0 1-.304-.167 4.558 4.558 0 0 1-.817-.704 2.428 2.428 0 0 1-.62-1.369c-.008-.064-.015-.129-.02-.194 0-.049-.003-.098-.003-.148 0-.6.186-1.14.555-1.605.361-.452.86-.806 1.487-1.053.612-.24 1.32-.365 2.106-.365.506 0 1.072.069 1.68.198.27.057.533.125.81.209.316.099.617.205.887.327l.216.095v1.776h-.692l-.106-.16c-.22-.327-.555-.631-.996-.901l-.023-.008a4.454 4.454 0 0 0-1.764-.365c-.19 0-.358.008-.521.02a2.943 2.943 0 0 0-1.624.63c-.034.031-.064.054-.087.077a1.402 1.402 0 0 0-.122.14l-.023.027a1.211 1.211 0 0 0-.266.78v.072c0 .038.004.072.012.106.011.095.034.19.064.278.065.209.187.38.377.532l.06.046c.1.084.187.152.278.213l.091.05.03.014c.18.114.377.217.594.3.372.15.886.328 1.574.548.673.21 1.262.411 1.745.598.148.06.278.117.4.174a4.582 4.582 0 0 1 1.494 1.069c.36.392.574.86.638 1.392.008.068.016.14.02.213 0 .045.003.091.007.14M94.785 56.365h-1.582v11.066h1.582V56.365ZM107.841 61.073v5.674l-.292.057a2.884 2.884 0 0 0-.578.17c-.392.16-.772.29-1.137.381-.86.217-1.624.327-2.263.327-1.3 0-2.441-.258-3.38-.768-.95-.513-1.677-1.22-2.163-2.1-.483-.87-.726-1.847-.726-2.9 0-1.054.243-2.047.726-2.917.486-.879 1.213-1.586 2.163-2.103.939-.517 2.076-.776 3.38-.776.692 0 1.46.106 2.286.32.832.216 1.418.429 1.79.65l.179.106v1.772h-.692l-.106-.167c-.035-.053-.152-.206-.575-.529-.315-.243-.752-.471-1.292-.68-.536-.206-1.152-.309-1.841-.309-.904 0-1.688.206-2.326.617-.639.41-1.13.97-1.453 1.658a5.533 5.533 0 0 0-.502 2.361c0 .86.168 1.647.502 2.343a3.924 3.924 0 0 0 1.453 1.646c.638.411 1.422.616 2.326.616.67 0 1.278-.087 1.81-.255.354-.114.662-.243.928-.387a.741.741 0 0 0 .205-.529v-4.27h1.582l-.004-.008ZM120.727 57.548h-5.278v9.883h-1.581v-9.883h-5.278l.297-1.183h11.54l.3 1.183ZM124.058 66.249h7.25l-.292 1.182h-8.544V56.365h8.544l.292 1.183h-7.25v2.726h4.121v1.183h-4.121v4.792ZM144.992 56.365v11.066h-1.007l-.065-.281c-.007-.027-.68-2.704-4.536-4.849-1.844-.996-3.262-2.023-4.224-3.065v8.195h-1.182V56.365h1.076l.091.228c.323.818 1.372 2.48 4.779 4.385 1.973 1.106 3.167 2.16 3.89 3.023v-7.636H145h-.008ZM42.03 79.3c.76 0 1.163-.365 1.163-.981 0-.617-.403-.982-1.164-.982h-1.931V79.3h1.931Zm-2.826-2.72h2.966c1.114 0 1.977.67 1.977 1.739 0 1.068-.86 1.658-1.81 1.71l1.996 2.834h-1.117l-1.901-2.826h-1.21v2.826h-.897v-6.286l-.004.004ZM47.432 76.58h-.897v6.287h.897V76.58ZM54.596 76.58v5.207L51.52 76.58h-1.362v6.286h.894v-5.438l3.205 5.438h1.232V76.58h-.893ZM57.805 79.73c0-1.925 1.27-3.282 3.201-3.282 1.719 0 2.654.943 2.817 2.13h-.97c-.174-.856-.748-1.374-1.9-1.374-1.263 0-2.206.955-2.206 2.522 0 1.566.99 2.506 2.407 2.506.806 0 1.472-.24 1.848-.491v-1.46h-2.095v-.75h2.935v2.659c-.547.437-1.672.81-2.642.81-2.148 0-3.392-1.346-3.392-3.27M69.895 76.58l-2.718 2.952V76.58h-.897v6.286h.897v-2.963l2.882 2.963h1.262l-3.209-3.21 2.89-3.076h-1.106ZM75.591 82.224c1.4 0 2.434-.955 2.434-2.495 0-.642-.183-1.186-.483-1.597l-3.3 3.727c.376.24.84.365 1.353.365m-1.958-.909 3.304-3.727c-.377-.24-.833-.365-1.346-.365-1.4 0-2.441.963-2.441 2.506 0 .643.183 1.175.483 1.586Zm.064 1.16-.558.624-.613-.525.54-.616c-.54-.563-.867-1.339-.867-2.229 0-1.916 1.517-3.281 3.392-3.281.703 0 1.354.186 1.886.524l.559-.623.612.525-.54.616c.54.57.867 1.346.867 2.236 0 1.916-1.51 3.27-3.384 3.27a3.547 3.547 0 0 1-1.894-.525M83.933 82.11c.814 0 1.262-.392 1.262-1.034 0-.643-.448-1.069-1.262-1.069H82.17v2.103h1.764Zm0-2.852c.704 0 1.133-.373 1.133-.97s-.43-.947-1.133-.947H82.17v1.917h1.764Zm-2.654-2.673h2.707c1.225 0 1.966.695 1.966 1.578 0 .764-.486 1.255-1.06 1.452.63.16 1.25.677 1.25 1.552 0 .962-.756 1.704-2.167 1.704h-2.7v-6.286h.004ZM89.385 76.58h-.897v6.287h.897V76.58ZM96.545 76.58v5.207l-3.072-5.206h-1.365v6.286h.897v-5.438l3.202 5.438h1.235V76.58h-.897ZM99.754 79.73c0-1.925 1.27-3.282 3.201-3.282 1.719 0 2.654.943 2.818 2.13h-.97c-.175-.856-.749-1.374-1.901-1.374-1.262 0-2.205.955-2.205 2.522 0 1.566.989 2.506 2.407 2.506.806 0 1.471-.24 1.848-.491v-1.46h-2.095v-.75h2.935v2.659c-.548.437-1.673.81-2.643.81-2.148 0-3.391-1.346-3.391-3.27M71.762 18.582l-.867-.424v.6l.867-.176ZM73.756 18.378ZM44.093 18.506c.024-.036.053-.064.08-.092-.031.028-.056.06-.08.092ZM44.234 18.362a.546.546 0 0 1 .096-.048c-.036.016-.068.028-.096.048ZM73.88 18.506ZM44.174 18.414s.036-.036.06-.052a.374.374 0 0 0-.06.052ZM44.07 18.538l-.013.036.036-.068c-.008.012-.02.016-.024.028M44.33 18.31c.028-.012.052-.024.084-.032a.725.725 0 0 0-.084.032ZM73.852 18.474s.02.02.024.032l-.024-.032ZM73.96 18.694s-.008-.012-.008-.02c0 .015.004.03.008.042v-.026M73.7 18.338ZM52.407 42.964s-.032-.012-.048-.02c.016.008.032.016.048.02ZM52.603 43h.016-.028.012ZM90.679 3.795h-.003l1.235.535v.307L78.451 7.32v-.44c0-.3-.242-.54-.542-.54a.54.54 0 0 0-.318.103.542.542 0 0 1 .855.441v18.478l-.45.107.454-.107v.006l19.752-4.691V9.947L91.8 11.13l.108-6.48.658-.133c.212-.04.372-.2.42-.396a.542.542 0 0 1-.416.388l-.658.132.008-.004V4.33l-1.24-.535Z"/><path fill="currentColor" d="M70.895 18.753v-.595l-1.08-.532v.004l-4.75-2.33-18.984 3.744 6.125 3.431 17.61-3.51v1.1l-17.144 3.418-.446.088c-.032.012-.068.012-.104.012a.556.556 0 0 1-.265-.068l-.269-.152-.008-.304a.54.54 0 0 1 .526-.552h-.004a.54.54 0 0 0-.526.552v-.004l.008.304-6.492-3.634v.004l.221 17.642 6.713 4.11-.442-18.114.27.152a.556.556 0 0 0 .368.056l.446-.088.445 18.29 20.234-4.989-.337-13.01 1.095.65v-.007l-1.087-.646-.032-1.27-.005-.002-.076-3.05-2.01.4-1.08.216v-1.1l1.08-.216Z"/><path fill="currentColor" d="M69.816 3.476v.008a.534.534 0 0 0 .313.446l.766.348v13.876-1.2l2.773 1.36c.012.004.02.012.032.02.02.012.036.028.056.04.04.028.072.064.1.1l.024.032a.465.465 0 0 1 .072.172v-.004c0 .008.008.02.008.02v.032l.004.03v.002c.003.01.005.02.005.032l.112 4.365v.009l3.278 1.942v.943a.539.539 0 0 0 .63.533l.077-.018a.545.545 0 0 1-.7-.518V7.23l-.003-.002v-.006l-6.464-2.948v-.4l1.18-.238-.008-.003-1.176.24v.4l-.766-.347a.532.532 0 0 1-.313-.45ZM84.48 1.127 72.104 3.64l5.87 2.676L90.65 3.792l-6.17-2.665ZM92.902 9.819l4.76-.879-4.712-2.024-.048 2.903Z"/><path fill="currentColor" fill-rule="evenodd" d="m97.675 8.942-.006.001-.007-.003.007-.001.006.003ZM77.59 6.443a.54.54 0 0 0-.223.437v.344l-.004-.002v-.338c0-.183.09-.343.228-.44Zm13.086-2.648-.013-.005-.012.002.012.006.013-.003ZM72.103 3.64l-.012-.006h-.004l-.008.002.012.006.012-.002ZM77.996 25.47l-.625-.372h-.004l.626.372h.003Zm-.63-18.24.47.214h.003l-.472-.216v.002ZM73.964 18.756a.58.58 0 0 0-.004-.035l-.003.005a.264.264 0 0 0 .004.018l.003.012Zm0 .002Zm-.978 3.748 1.095.65-1.096-.653v.003ZM51.584 23.359l-6.492-3.634v-.48l.988-.196-.012-.006-.984.194v.484l6.5 3.638Zm-5.514-4.317.005.003h.006l-.006-.004-.005.001Zm6.602 4.44-.012-.45a.54.54 0 0 0-.542-.525h-.016.012a.54.54 0 0 1 .542.524l.012.452h.004ZM52.026 41.485v-.004l-.442-18.114.442 18.118ZM73.347 36.788h.004l-.004.004v-.004Zm.762-12.355v-.003l-.004-.002v.002l.004.003ZM52.026 41.48l.024.992.004.004a.533.533 0 0 0 .301.464l-.03-.014a.53.53 0 0 1-.275-.45l-.024-.991v-.004Z" clip-rule="evenodd"/><path fill="currentColor" fill-rule="evenodd" d="M44.803 18.331a.555.555 0 0 0-.393-.045.555.555 0 0 1 .39.052l.003-.007Zm1.273.714-.006-.003h.005l.006.002-.006.001ZM72.897 19.137l.008.316h-.004l-.008-.316-1.131-.555 1.135.555ZM73.7 18.334ZM77.84 7.443l-.473-.215v.002l.47.214h.002Zm-.477-.22v-.339c0-.183.09-.343.228-.44a.54.54 0 0 0-.224.436v.344l-.004-.002ZM72.075 3.632l.012.006V3.63l-.012.002Zm-.004.001h.004l-1.497-.683a.538.538 0 0 0-.762.52v-.057a.538.538 0 0 1 .766-.458l1.49.678ZM90.679 3.795l1.678-.333a.535.535 0 0 1 .644.504L93 4.038a.516.516 0 0 1 0 .017.533.533 0 0 0-.005-.177.544.544 0 0 0-.36-.409.535.535 0 0 0-.274-.015l-1.694.336.012.005ZM92.95 6.916v-.004l-.706-.304a.538.538 0 0 1-.326-.49c0 .209.123.408.326.494l.706.304ZM78.45 26.046a.537.537 0 0 1-.303.485.537.537 0 0 0 .295-.482v-.68l.008-.001v.678Zm-.454-.577-.625-.371h-.004l.626.372h.003ZM72.986 22.506v-.003l1.095.652-1.095-.65Zm1.119 1.915.008.005-.032-1.262-.008-.005.032 1.262Z" clip-rule="evenodd"/><path fill="currentColor" fill-rule="evenodd" d="m72.905 19.453-.008-.316-1.135-.555 1.131.555.008.316h.004Zm.63-.124Zm.429-.573c0-.01-.002-.02-.004-.03v-.005l-.003.005a.264.264 0 0 0 .004.018l.003.012Zm-.004-.04a.251.251 0 0 0-.008-.038c.001.014.005.028.008.038Zm-.08-.21Zm-.18-.172Zm.11.09Zm.046.054Zm-.004-.004s.02.02.024.032l-.024-.032ZM52.106 22.507h.012a.54.54 0 0 1 .541.524l.013.452h-.004l-.012-.452a.54.54 0 0 0-.542-.524h-.008ZM53.129 42.448a.537.537 0 0 1-.413.536l.049-.012a.542.542 0 0 0 .368-.52l-.004-.004Zm-.538.552a.58.58 0 0 1-.184-.036s-.032-.012-.048-.02a.56.56 0 0 0 .233.056Zm-.267-.074.031.014a.533.533 0 0 1-.301-.464l-.004-.004-.024-.987.024.991a.53.53 0 0 0 .274.45ZM98.744 9.359a.495.495 0 0 1-.213-.044v.004l-.862-.372.013-.002.85.366a.54.54 0 0 0 .71-.28l-.013.008a.553.553 0 0 0 .045-.208v.102a.54.54 0 0 1-.53.425Z" clip-rule="evenodd"/><path fill="currentColor" fill-rule="evenodd" d="M98.744 9.355a.54.54 0 0 0 .498-.324l-.013.008a.553.553 0 0 0 .045-.208v.102a.54.54 0 0 1-.742.381v.005l-.863-.372.013-.002.85.366c.068.028.14.044.212.044Zm-1.069-.413-.006-.003-.007.001.007.003.006-.001ZM92.95 6.916v-.004l-.706-.304a.538.538 0 0 1-.326-.49c0 .209.123.408.326.494l.706.304ZM93 4.038v.017a.522.522 0 0 1 0-.017Zm0-.072a.526.526 0 0 1 0 .072v-.072Zm-.278-.459-.087-.038a.535.535 0 0 0-.274-.015l-1.694.336.012.005 1.678-.333a.535.535 0 0 1 .644.504v-.04a.544.544 0 0 0-.28-.418Zm-2.059.283.013.005-.013.003-.012-.006.012-.002Zm-18.572-.156.012.006-.012.002-.012-.006-.008-.003-1.489-.679a.538.538 0 0 0-.718.26.538.538 0 0 1 .714-.264l1.497.682.012-.002v.005l.004-.001Zm-2.275-.221v.058a.563.563 0 0 1 0-.058Zm0 .071v-.008.008Zm8.626 21.886.008-.002v.678a.537.537 0 0 1-.303.485.537.537 0 0 0 .295-.482v-.68Zm-.452 1.212.076-.018a.549.549 0 0 1-.076.018Zm-3.881-2.152v.003l-.004-.003v-.002l.004.002Zm.004-.004-.008-.005-.032-1.262.008.005.032 1.262Z" clip-rule="evenodd"/></svg>